<?xml version="1.0" encoding="utf-8"?>
<!-- Generator: Adobe Illustrator 25.2.3, SVG Export Plug-In . SVG Version: 6.00 Build 0)  -->
<svg version="1.1" id="Layer_1" xmlns="http://www.w3.org/2000/svg" xmlns:xlink="http://www.w3.org/1999/xlink" x="0px" y="0px"
	 viewBox="0 0 737.8 174" style="enable-background:new 0 0 737.8 174;" xml:space="preserve">
<style type="text/css">
	.st0{fill:#3B424A;}
</style>
<g>
	<g>
		<g>
			<path class="st0" d="M165.2,54.1c-4.2-4.2-10.9-4.2-15.1,0L101,103.2c-2.1,2.1-5.5,2.1-7.6,0c-2.1-2.1-2.1-5.5,0-7.6l26.4-26.4
				c4.2-4.2,4.2-10.9,0-15.1c-4.2-4.2-10.9-4.2-15.1,0L78.4,80.6c-2.1,2.1-5.5,2.1-7.6,0c-2.1-2.1-2.1-5.5,0-7.6l3.8-3.8
				c4.2-4.2,4.2-10.9,0-15.1c-4.2-4.2-10.9-4.2-15.1,0l-3.8,3.8c-6.3,6.3-6.3,16.4,0,22.7c7.6,7.6,14,9,21.4,16.4
				c7.4,7.4,8.8,13.8,16.4,21.4c6.3,6.3,16.4,6.3,22.7,0l49.1-49.1C169.4,65.1,169.4,58.3,165.2,54.1z"/>
		</g>
	</g>
	<g>
		<g>
			<path class="st0" d="M308.5,72C294.4,72,283,83.4,283,97.5c0,14.1,11.4,25.5,25.5,25.5S334,111.6,334,97.5
				C334,83.4,322.6,72,308.5,72z M308.5,114.2c-9.2,0-16.7-7.5-16.7-16.7c0-9.2,7.5-16.7,16.7-16.7c9.2,0,16.7,7.5,16.7,16.7
				C325.2,106.7,317.7,114.2,308.5,114.2z"/>
			<path class="st0" d="M288.9,51.7L265.3,122h-8.6l-17.4-51.7L221.9,122h-8.6l-23.6-70.3h9.9l18.1,53.8l18.1-53.8h7.3l18.1,53.8
				L279,51.7H288.9z"/>
			<path class="st0" d="M369.1,73v8.9c0,0-2.7-1.2-6-1c-4.3,0.2-9.3,3-12.3,8.5V122h-9.3V73h9.3v7.1c2.7-4.9,7.9-8,12.6-8.1
				C366.6,71.9,369.1,73,369.1,73z"/>
			<path class="st0" d="M407.1,122l-22.7-22.6V122H375V51.7h9.3v42.8L405.9,73h11.2l-23.5,23.5l25.6,25.5H407.1z"/>
			<path class="st0" d="M464.8,51.7v8.8h-30.6v20.3h27.3v8.8h-27.3V122h-9.3V51.7H464.8z"/>
			<path class="st0" d="M519.9,116l3.8-6.9c0,0,7.1,5.9,16.5,5.9c6.1,0,9.5-2.9,9.5-6.7c0-10-28.3-3.4-28.3-21.5
				c0-8.9,7.5-14.7,18.6-14.7c11.1,0,18.1,6.1,18.1,6.1l-4.3,7.1c0,0-6.5-5.5-14.7-5.3c-4.9,0.2-8.4,2.4-8.4,6.2
				c0,9.9,28.4,3.5,28.4,21.4c0,9-7.6,15.4-18.8,15.4C527.4,123,519.9,116,519.9,116z"/>
			<path class="st0" d="M577.6,57.2c0,3.4-2.9,6.2-6.2,6.2c-3.4,0-6.2-2.8-6.2-6.2c0-3.3,2.8-6.2,6.2-6.2
				C574.7,51,577.6,53.9,577.6,57.2z M576,73v49h-9.3V73H576z"/>
			<path class="st0" d="M608.6,72c-14.1,0-25.5,11.4-25.5,25.5c0,14.1,11.4,25.5,25.5,25.5s25.5-11.4,25.5-25.5
				C634.1,83.4,622.7,72,608.6,72z M608.6,114.2c-9.2,0-16.7-7.5-16.7-16.7c0-9.2,7.5-16.7,16.7-16.7s16.7,7.5,16.7,16.7
				C625.3,106.7,617.8,114.2,608.6,114.2z"/>
			<path class="st0" d="M641.3,122V73h9.2v6.7c3.1-4,8.6-7.8,16.4-7.7c12.3,0.2,19.9,8.5,19.9,22s0,28,0,28h-9.3c0,0,0-18.8,0-27.4
				s-5.1-13.4-12.9-13.4c-5.8,0-11.3,3.1-14.1,8V122H641.3z"/>
			<path class="st0" d="M513.5,73v49h-9.2v-6.7c-3.1,4-8.6,7.8-16.4,7.7c-12.3-0.2-19.9-8.5-19.9-22s0-28,0-28h9.3
				c0,0,0,18.8,0,27.4s5.1,13.4,12.9,13.4c5.8,0,11.3-3.1,14.1-8V73H513.5z"/>
		</g>
	</g>
</g>
</svg>
